<svg width="36" height="36" viewBox="0 0 36 36" fill="none" xmlns="http://www.w3.org/2000/svg">
<path d="M18.0294 4C16.7611 4 15.7329 5.05087 15.7329 6.34719L15.7329 23.69L11.0293 18.3487C10.478 17.7007 9.62449 17.4122 8.8039 17.5964C7.9833 17.7806 7.32662 18.4081 7.09168 19.2326C6.85673 20.0571 7.08103 20.9468 7.67651 21.5526L16.3472 31.2538C16.7815 31.7298 17.3897 32 18.0265 32C18.6633 32 19.2714 31.7298 19.7058 31.2538L28.3822 21.5526C29.2478 20.6047 29.1977 19.119 28.2703 18.2343C27.3428 17.3495 25.8893 17.4008 25.0236 18.3487L20.3258 23.69L20.3258 6.34719C20.3258 5.05087 19.2977 4 18.0294 4Z" fill="url(#paint0_linear_403_4450)"/>
<defs>
<linearGradient id="paint0_linear_403_4450" x1="15.8788" y1="32" x2="15.8788" y2="8.1875" gradientUnits="userSpaceOnUse">
<stop stop-color="#D46AFB"/>
<stop offset="1" stop-color="#8F59FF"/>
</linearGradient>
</defs>
</svg>
