<svg width="36" height="36" viewBox="0 0 36 36" fill="none" xmlns="http://www.w3.org/2000/svg">
<path d="M8.76777 17.2322C7.79146 16.2559 6.20854 16.2559 5.23223 17.2322C4.25592 18.2085 4.25592 19.7915 5.23223 20.7678L8.76777 17.2322ZM16 28L14.2322 29.7678C14.7307 30.2662 15.4164 30.5311 16.1205 30.4971C16.8247 30.4631 17.4817 30.1334 17.9298 29.5893L16 28ZM31.9298 12.5893C32.8076 11.5235 32.6551 9.9479 31.5893 9.07017C30.5235 8.19245 28.9479 8.34492 28.0702 9.41073L31.9298 12.5893ZM5.23223 20.7678L14.2322 29.7678L17.7678 26.2322L8.76777 17.2322L5.23223 20.7678ZM17.9298 29.5893L31.9298 12.5893L28.0702 9.41073L14.0702 26.4107L17.9298 29.5893Z" fill="white"/>
</svg>
