<svg width="356" height="437" viewBox="0 0 356 437" fill="none" xmlns="http://www.w3.org/2000/svg">
<g opacity="0.2" filter="url(#filter0_f_457_5024)">
<path d="M277.065 232L252.611 139.5L164.775 114L61.9665 150.5L44 210L83.4264 267.5L67.9553 317L93.4078 329L121.855 337.5L130.838 388L154.793 393L146.808 345.5H175.255L184.238 393H203.203V358.5L217.177 329L241.631 317L252.611 299L277.065 290L312 267.5V242.5L277.065 232Z" fill="black"/>
</g>
<path fill-rule="evenodd" clip-rule="evenodd" d="M102.447 287.885C102.447 287.885 102.264 324.14 110.304 338.66C118.343 353.18 131.865 349.71 131.865 349.71C131.865 349.71 153.243 347.792 151.324 327.975C149.406 308.158 138.899 287.885 139.996 287.885H102.447Z" fill="url(#paint0_linear_457_5024)"/>
<path fill-rule="evenodd" clip-rule="evenodd" d="M156.532 293.455C156.532 293.455 157.446 320.852 159.09 329.527C160.735 338.112 160.918 345.6 169.505 350.897C178.093 356.285 192.711 349.618 192.711 349.618C192.711 349.618 202.943 345.326 202.943 333.454C202.943 321.582 197.096 288.067 197.096 288.067L156.532 293.455Z" fill="url(#paint1_linear_457_5024)"/>
<path fill-rule="evenodd" clip-rule="evenodd" d="M125.652 326.331C125.652 326.331 140.452 323.774 146.208 316.925C151.964 310.167 147.03 301.583 145.112 301.857C145.112 301.857 147.487 306.606 142.006 310.807C136.433 315.007 126.018 317.93 123.825 317.838L123.277 311.628C114.872 312.45 107.289 310.989 107.289 310.989L108.202 316.925C101.99 314.368 103.543 308.889 103.543 308.889C100.985 310.259 100.345 323.409 109.299 323.957L110.486 330.258C110.486 330.258 114.049 332.815 126.292 331.445L125.652 326.331Z" fill="#9089F8" stroke="#5854C8" stroke-width="2" stroke-miterlimit="3.9388"/>
<path fill-rule="evenodd" clip-rule="evenodd" d="M179.28 330.258C164.571 332.268 162.47 329.071 162.47 329.071L161.831 323.775C150.045 322.496 157.263 309.62 157.263 309.985C157.263 315.099 161.374 317.017 161.374 317.017L161.191 310.533C161.191 310.533 164.023 312.268 177.819 311.629L177.91 317.108C177.91 317.108 187.594 316.012 194.72 313.364C201.846 310.715 200.202 306.88 200.202 306.88C200.202 306.88 207.602 316.012 198.832 320.213C190.061 324.414 185.402 324.231 178.824 324.87L179.28 330.258Z" fill="#9089F8" stroke="#5854C8" stroke-width="2" stroke-miterlimit="3.9388"/>
<path fill-rule="evenodd" clip-rule="evenodd" d="M217.014 271.081C217.288 271.172 233.947 273.239 239.885 270.865C240.981 267.76 241.383 264.872 241.383 264.872L218.932 264.962L217.014 271.081Z" fill="#110C5C"/>
<path fill-rule="evenodd" clip-rule="evenodd" d="M216.922 267.885C216.922 267.885 215.917 233.913 221.672 230.808C221.672 230.808 231.357 241.949 244.238 245.511C244.238 245.511 245.974 260.762 241.954 265.876C233.458 269.072 216.922 267.885 216.922 267.885Z" fill="#3027A3"/>
<path fill-rule="evenodd" clip-rule="evenodd" d="M62.614 218.48C60.5127 217.84 23.329 285.236 30.3638 305.693C34.3836 317.29 56.3101 318.021 64.898 316.377C87.1899 312.176 79.3329 245.602 78.8761 224.507L62.614 218.48Z" fill="url(#paint2_linear_457_5024)"/>
<g filter="url(#filter1_i_457_5024)">
<path fill-rule="evenodd" clip-rule="evenodd" d="M42.5147 199.485C42.5147 199.485 7.06689 176.106 11.3608 125.787C15.5634 75.5601 50.6458 1.95421 145.386 0.0364347C240.127 -1.88134 270.55 72.5464 270.55 72.5464C270.55 72.5464 295.126 120.856 283.797 153.184C272.469 185.512 261.962 199.576 253.374 201.494C244.878 203.411 112.862 206.79 42.5147 199.485Z" fill="url(#paint3_linear_457_5024)"/>
</g>
<ellipse opacity="0.5" cx="148.482" cy="64.598" rx="84.9091" ry="48.9447" fill="url(#paint4_linear_457_5024)"/>
<path fill-rule="evenodd" clip-rule="evenodd" d="M105.279 103.688L181.291 102.866C181.474 79.7611 169.323 68.2545 145.386 67.7979C120.902 69.0764 109.482 82.8661 105.279 103.688Z" fill="black"/>
<path fill-rule="evenodd" clip-rule="evenodd" d="M22.8545 105.605L70.8187 104.053C71.0928 80.3087 62.6876 70.7198 48.1613 70.9025C33.9091 72.5463 26.4175 85.6967 22.8545 105.605Z" fill="black"/>
<path fill-rule="evenodd" clip-rule="evenodd" d="M244.421 215.466C244.421 215.466 248.715 211.174 249.902 202.224C209.338 205.42 55.1219 202.133 41.692 199.119C38.9511 199.941 40.1388 202.224 40.1388 202.224L43.6105 211.174C69.0087 213.913 171.15 222.498 244.421 215.466Z" fill="#E0CFFF"/>
<path fill-rule="evenodd" clip-rule="evenodd" d="M244.421 215.466C226.697 231.813 71.0189 221.219 71.0189 221.219C71.0189 221.219 44.6158 212.635 43.7021 211.174C111.766 218.388 178.733 220.123 244.421 215.466Z" fill="#4036C0"/>
<path fill-rule="evenodd" clip-rule="evenodd" d="M285.35 151.358C285.35 151.358 295.582 147.614 309.835 155.559C324.087 163.504 332.035 174.919 325.914 186.335C319.793 197.659 297.318 227.064 289.096 230.9C280.873 234.644 268.357 247.977 247.253 248.342C226.149 248.708 215.368 230.443 215.368 230.443L214.729 222.955L243.598 214.005C243.598 214.005 252.46 204.142 255.841 197.567C259.312 190.901 274.661 155.011 285.35 151.358Z" fill="url(#paint5_linear_457_5024)"/>
<path fill-rule="evenodd" clip-rule="evenodd" d="M270.733 168.892C270.733 168.892 267.992 169.987 273.382 174.736C278.772 179.485 299.511 194.097 310.383 196.562C321.255 199.028 320.159 195.284 320.159 195.284C320.159 195.284 321.072 200.307 314.86 205.512C308.647 210.626 282.061 192.909 282.061 192.909C282.061 192.909 270.733 184.508 266.439 179.668C262.236 174.828 268.54 169.805 268.54 169.805L270.733 168.892Z" fill="#9089F8" stroke="#5854C8" stroke-width="2" stroke-miterlimit="3.9388"/>
<path fill-rule="evenodd" clip-rule="evenodd" d="M253.648 201.128C255.11 198.571 247.527 204.599 247.801 209.804C247.893 211.722 249.263 214.918 250.268 216.653C252.278 220.58 257.394 228.16 269.18 237.109C269.18 237.109 283.34 246.424 289.187 230.717C289.187 230.717 288.182 235.466 278.407 230.717C268.631 225.968 258.947 214.096 258.947 214.096C258.947 214.096 251.09 205.786 253.648 201.128Z" fill="#9089F8" stroke="#5854C8" stroke-width="2" stroke-miterlimit="3.9388"/>
<path fill-rule="evenodd" clip-rule="evenodd" d="M216.83 232.543C204.679 237.383 149.955 235.009 149.955 235.009L140.727 245.694L134.241 235.1C112.588 235.009 95.7778 232.908 95.7778 232.908C95.7778 232.908 93.1284 238.662 88.5604 242.589C88.5604 242.589 85.6368 237.657 84.0837 232.817C84.0837 232.817 66.908 233.274 70.9278 221.311C116.608 224.416 171.972 227.338 217.013 222.68L216.83 232.543Z" fill="url(#paint6_linear_457_5024)" stroke="#3F37C3" stroke-width="0.567" stroke-miterlimit="3.9388"/>
<path fill-rule="evenodd" clip-rule="evenodd" d="M48.7272 242.223C48.7272 242.223 45.8951 244.963 52.8384 248.433C59.7818 251.903 76.2267 259.574 80.5206 258.479C84.8146 257.474 82.6219 264.962 82.6219 264.962C82.6219 264.962 82.8046 270.35 64.7153 262.862C46.7173 255.374 43.9765 252.177 43.9765 252.177C43.9765 252.177 42.0579 246.607 48.7272 242.223Z" fill="#9089F8" stroke="#5854C8" stroke-width="2" stroke-miterlimit="3.9388"/>
<path fill-rule="evenodd" clip-rule="evenodd" d="M79.5157 289.072C79.5157 289.072 78.1453 292.816 66.3598 291.173C54.5743 289.437 36.8504 284.78 35.0232 281.218C33.196 277.657 32.9219 277.657 32.0083 278.387C31.0947 279.118 28.4452 282.954 29.0848 286.789C29.7243 290.625 46.1691 295.099 46.1691 295.099C46.1691 295.099 65.6289 299.94 75.6785 299.392C85.8195 298.844 79.5157 289.072 79.5157 289.072Z" fill="#9089F8" stroke="#5854C8" stroke-width="2" stroke-miterlimit="3.9388"/>
<path fill-rule="evenodd" clip-rule="evenodd" d="M216.83 232.544C204.679 237.384 150.868 234.096 150.868 234.096L141.641 244.781L135.154 234.187C113.502 234.096 96.6914 231.996 96.6914 231.996C96.6914 231.996 94.0419 237.749 89.4739 241.676C89.4739 241.676 86.5504 236.744 84.9972 231.904C84.9972 231.904 82.1651 231.996 79.1502 231.265C77.323 232.178 76.2267 233.822 75.5871 235.466C74.1254 238.936 73.7599 247.429 73.9426 251.082C74.5822 263.593 78.602 273.182 79.4243 274.004C79.4243 274.095 93.1283 277.474 110.487 279.209C131.774 281.401 158.36 280.945 179.555 279.483C198.101 278.205 214.363 276.196 214.363 276.196C214.363 276.196 217.835 274.917 220.576 265.968C223.317 257.109 221.307 246.607 220.667 237.11L216.83 232.544Z" fill="url(#paint7_linear_457_5024)"/>
<path fill-rule="evenodd" clip-rule="evenodd" d="M167.953 234.553C158.177 234.37 150.868 234.096 150.868 234.096L141.641 244.781L135.154 234.187C113.502 234.096 96.6918 231.996 96.6918 231.996C96.6918 231.996 94.0423 237.749 89.4743 241.676C89.4743 241.676 86.5508 236.744 84.9977 231.904C84.9977 231.904 82.4396 232.087 79.4247 231.356C78.8765 233.548 77.7802 236.014 77.1407 239.028C73.1208 257.566 80.6124 263.981 80.6124 263.981C80.6124 263.981 92.3978 277.588 134.15 275.944C175.901 274.301 173.8 257.863 173.8 257.863C173.8 257.863 173.891 246.059 173.526 241.676C173.252 237.11 167.953 234.553 167.953 234.553Z" fill="url(#paint8_linear_457_5024)" stroke="#5854C8" stroke-width="2" stroke-miterlimit="3.9388"/>
<path fill-rule="evenodd" clip-rule="evenodd" d="M121.267 243.228L105.188 242.771L105.005 247.064L110.578 254.278L105.279 260.762L105.37 265.328L121.176 265.602L120.993 261.31C120.993 261.31 110.578 260.945 110.852 261.036C111.126 261.219 117.339 254.095 117.339 254.095L111.126 247.612L120.81 247.794L121.267 243.228Z" fill="url(#paint9_linear_457_5024)" stroke="#4031B3" stroke-width="2" stroke-miterlimit="3.9388"/>
<path fill-rule="evenodd" clip-rule="evenodd" d="M124.83 286.15C100.529 285.785 79.9725 279.849 79.9725 279.849C78.2366 276.47 78.4194 272.817 78.8762 272.817C79.1502 272.817 79.4243 273 79.6984 273.091C109.391 284.506 190.701 281.766 216.922 274.004C216.922 274.004 217.013 275.831 217.196 276.926C215.003 290.625 136.799 286.333 124.83 286.15Z" fill="#8983F8" stroke="#5854C8" stroke-width="2" stroke-miterlimit="3.9388"/>
<path fill-rule="evenodd" clip-rule="evenodd" d="M207.603 283.227C186.042 289.072 134.332 286.332 124.83 286.15C108.386 285.876 93.6765 283.045 85.8195 281.31C85.8195 281.31 97.4223 297.2 150.411 297.017C191.432 296.834 203.948 287.428 207.603 283.227Z" fill="url(#paint10_linear_457_5024)" stroke="#5854C8" stroke-width="2" stroke-miterlimit="3.9388"/>
<path d="M155.974 278.356C160.112 278.356 163.466 274.779 163.466 270.365C163.466 265.952 160.112 262.375 155.974 262.375C151.837 262.375 148.482 265.952 148.482 270.365C148.482 274.779 151.837 278.356 155.974 278.356Z" fill="#CDC0FE" stroke="#443AB4" stroke-width="2" stroke-miterlimit="3.9388"/>
<path d="M232.91 267.246C235.786 267.246 238.117 264.833 238.117 261.858C238.117 258.882 235.786 256.47 232.91 256.47C230.034 256.47 227.702 258.882 227.702 261.858C227.702 264.833 230.034 267.246 232.91 267.246Z" stroke="#191456" stroke-width="3" stroke-miterlimit="3.9388"/>
<path fill-rule="evenodd" clip-rule="evenodd" d="M160.826 270.99C166.491 292.816 232.636 301.492 229.347 271.629C228.89 267.885 227.245 259.027 232.362 258.296C237.295 257.657 237.478 267.063 237.478 267.063C237.478 267.063 238.939 280.396 235.194 286.15C217.104 314.186 147.214 295.282 151.416 269.164C151.416 269.164 151.508 266.333 155.527 266.15C159.547 265.967 159.913 267.976 159.913 267.976L160.826 270.99Z" fill="#3D37AA"/>
<defs>
<filter id="filter0_f_457_5024" x="0" y="70" width="356" height="367" filterUnits="userSpaceOnUse" color-interpolation-filters="sRGB">
<feFlood flood-opacity="0" result="BackgroundImageFix"/>
<feBlend mode="normal" in="SourceGraphic" in2="BackgroundImageFix" result="shape"/>
<feGaussianBlur stdDeviation="22" result="effect1_foregroundBlur_457_5024"/>
</filter>
<filter id="filter1_i_457_5024" x="1" y="-10" width="285.782" height="213.966" filterUnits="userSpaceOnUse" color-interpolation-filters="sRGB">
<feFlood flood-opacity="0" result="BackgroundImageFix"/>
<feBlend mode="normal" in="SourceGraphic" in2="BackgroundImageFix" result="shape"/>
<feColorMatrix in="SourceAlpha" type="matrix" values="0 0 0 0 0 0 0 0 0 0 0 0 0 0 0 0 0 0 127 0" result="hardAlpha"/>
<feOffset dx="-10" dy="-10"/>
<feGaussianBlur stdDeviation="20"/>
<feComposite in2="hardAlpha" operator="arithmetic" k2="-1" k3="1"/>
<feColorMatrix type="matrix" values="0 0 0 0 0.374855 0 0 0 0 0.345972 0 0 0 0 0.783333 0 0 0 0.4 0"/>
<feBlend mode="normal" in2="shape" result="effect1_innerShadow_457_5024"/>
</filter>
<linearGradient id="paint0_linear_457_5024" x1="126.946" y1="287.885" x2="108.526" y2="323.307" gradientUnits="userSpaceOnUse">
<stop stop-color="#332FE1"/>
<stop offset="1" stop-color="#D4C6FF"/>
</linearGradient>
<linearGradient id="paint1_linear_457_5024" x1="179.449" y1="293.339" x2="177.307" y2="320.138" gradientUnits="userSpaceOnUse">
<stop stop-color="#332FE1"/>
<stop offset="1" stop-color="#D4C6FF"/>
</linearGradient>
<linearGradient id="paint2_linear_457_5024" x1="76.5593" y1="246.392" x2="44.0943" y2="253.885" gradientUnits="userSpaceOnUse">
<stop stop-color="#6360E5"/>
<stop offset="1" stop-color="#D4C6FF"/>
</linearGradient>
<linearGradient id="paint3_linear_457_5024" x1="148.891" y1="91.5674" x2="148.891" y2="203.966" gradientUnits="userSpaceOnUse">
<stop stop-color="#C8C0FF"/>
<stop offset="1" stop-color="#B5AAFF"/>
</linearGradient>
<linearGradient id="paint4_linear_457_5024" x1="148.482" y1="15.6533" x2="148.482" y2="91.0681" gradientUnits="userSpaceOnUse">
<stop stop-color="white"/>
<stop offset="1" stop-color="white" stop-opacity="0"/>
</linearGradient>
<linearGradient id="paint5_linear_457_5024" x1="231.893" y1="199.446" x2="263.858" y2="208.936" gradientUnits="userSpaceOnUse">
<stop stop-color="#6360E5"/>
<stop offset="1" stop-color="#D4C6FF"/>
</linearGradient>
<linearGradient id="paint6_linear_457_5024" x1="143.666" y1="221.311" x2="143.666" y2="245.694" gradientUnits="userSpaceOnUse">
<stop stop-color="#5854E0"/>
<stop offset="1" stop-color="#AEACEF"/>
</linearGradient>
<linearGradient id="paint7_linear_457_5024" x1="147.939" y1="231.265" x2="147.939" y2="280.717" gradientUnits="userSpaceOnUse">
<stop stop-color="#6360E5"/>
<stop offset="1" stop-color="#D4C6FF"/>
</linearGradient>
<linearGradient id="paint8_linear_457_5024" x1="124.508" y1="231.41" x2="136.994" y2="277.358" gradientUnits="userSpaceOnUse">
<stop stop-color="#6360E5"/>
<stop offset="1" stop-color="#D4C6FF"/>
</linearGradient>
<linearGradient id="paint9_linear_457_5024" x1="113.136" y1="242.771" x2="113.136" y2="265.602" gradientUnits="userSpaceOnUse">
<stop stop-color="#8E86F6"/>
<stop offset="1" stop-color="#BCB7FF"/>
</linearGradient>
<linearGradient id="paint10_linear_457_5024" x1="146.711" y1="281.31" x2="146.711" y2="297.019" gradientUnits="userSpaceOnUse">
<stop stop-color="#6360E5"/>
<stop offset="1" stop-color="#D4C6FF"/>
</linearGradient>
</defs>
</svg>
