<svg width="1366" height="331" viewBox="0 0 1366 331" fill="none" xmlns="http://www.w3.org/2000/svg">
<path d="M84.4107 188.053C112.77 170.021 146.235 158.795 181.115 155.613L1024.08 78.7091C1056.76 75.7277 1089.53 79.9131 1119.21 90.8581L1913.89 377.7L-482.551 611.91L84.4107 188.053Z" fill="url(#paint0_linear_452_4736)" fill-opacity="0.02"/>
<path d="M83.9654 206.071C90.9634 201.061 98.2912 196.493 106.191 193.127C130.16 182.916 156.288 176.969 182.899 175.72L1040.29 135.471C1069.26 134.11 1098.02 138.358 1124.34 147.889L1910.54 424.286L-470.949 603.362L83.9654 206.071Z" fill="url(#paint1_linear_452_4736)" fill-opacity="0.06"/>
<path d="M83.5124 223.165C94.605 215.565 106.484 209.075 119.325 205.433C141.77 199.067 165.642 195.738 189.687 195.672L1046.98 193.297C1075.95 193.217 1104.38 197.875 1130.09 206.915L1712.83 411.811L-504.003 625.667L83.5124 223.165Z" fill="url(#paint2_linear_452_4736)" fill-opacity="0.08"/>
<defs>
<linearGradient id="paint0_linear_452_4736" x1="753.265" y1="146.549" x2="834.263" y2="528.094" gradientUnits="userSpaceOnUse">
<stop stop-color="white"/>
<stop offset="1" stop-color="white" stop-opacity="0"/>
</linearGradient>
<linearGradient id="paint1_linear_452_4736" x1="759.975" y1="185.912" x2="810.295" y2="520.287" gradientUnits="userSpaceOnUse">
<stop stop-color="white"/>
<stop offset="1" stop-color="white" stop-opacity="0"/>
</linearGradient>
<linearGradient id="paint2_linear_452_4736" x1="764.577" y1="225.634" x2="790.229" y2="511.006" gradientUnits="userSpaceOnUse">
<stop stop-color="white"/>
<stop offset="1" stop-color="white" stop-opacity="0"/>
</linearGradient>
</defs>
</svg>
