<svg width="1366" height="676" viewBox="0 0 1366 676" fill="none" xmlns="http://www.w3.org/2000/svg">
<path d="M251.892 130.451C276.09 113.342 304.572 103.192 334.197 101.122L1050.17 51.086C1077.92 49.1463 1105.7 54.3675 1130.81 66.2419L1807.28 391.886L-232.34 535.79L251.892 130.451Z" fill="#111111" fill-opacity="0.04"/>
<path d="M239.29 139.52C246.394 133.58 253.916 128.086 262.31 124.176C281.7 115.145 302.749 110.073 324.219 109.315L1046.28 83.819C1070.68 82.9573 1094.96 87.6927 1117.25 97.6623L1775.5 427L-221.966 525.196L239.29 139.52Z" fill="#111111" fill-opacity="0.06"/>
<path d="M226.83 147.835C238.717 137.509 251.922 128.506 267.029 124.068C283.923 119.105 301.737 116.558 319.737 116.581L1042.24 117.504C1066.66 117.535 1090.75 122.295 1112.66 131.419L1718 448L-377.011 672.329L226.83 147.835Z" fill="#111111"/>
</svg>
