<svg width="1366" height="687" viewBox="0 0 1366 687" fill="none" xmlns="http://www.w3.org/2000/svg">
<path d="M1106.53 546.155C1082.64 563.414 1054.45 573.74 1025.06 575.994L314.923 630.476C287.393 632.588 259.784 627.54 234.783 615.823L-438.908 294.403L1584.09 137.833L1106.53 546.155Z" fill="#111111" fill-opacity="0.03"/>
<path d="M1114.3 535.883C1107.2 541.823 1099.68 547.317 1091.28 551.227C1071.89 560.258 1050.84 565.33 1029.37 566.088L307.317 591.584C282.913 592.445 258.636 587.71 236.346 577.741L-421.906 248.403L1575.56 150.206L1114.3 535.883Z" fill="#111111" fill-opacity="0.06"/>
<path d="M1126.76 527.568C1114.87 537.894 1101.67 546.897 1086.56 551.335C1069.67 556.298 1051.85 558.845 1033.86 558.822L311.353 557.9C286.935 557.868 262.846 553.108 240.933 543.984L-506.501 134L1730.6 3.07399L1126.76 527.568Z" fill="#111111"/>
</svg>
