<svg width="215" height="64" fill="none" xmlns="http://www.w3.org/2000/svg"><path fill-rule="evenodd" clip-rule="evenodd" d="M28.585 12.143c-1.382.491-.9 1.831.493 1.43 1.53-.44 4.353-1.141 4.539-1.189 6.733-1.732 23.012-5.875 26.042 3.438.412 1.266.47 2.56.068 3.837-1.536 4.873-9.126 7.451-13.433 8.701l-.011.003-16.963 4.274-3.837-5.674 19.183-4.832c2.521-.734 5.343-1.657 7.575-3.089 2.735-1.755.636-2.8-1.385-3.064-5.112-.668-10.993.888-15.946 2.162-3.021.777-7.354 1.681-10.275.243-2.997-1.476-4.494-5.997-2.643-8.952 1.658-2.648 5.454-3.684 8.258-4.343L34.252 4l3.81 5.636c-3.21.968-6.282 1.595-9.477 2.508Z" fill="#fff"/><path fill-rule="evenodd" clip-rule="evenodd" d="m29.32 32.637-9.232 2.326 18.83 11.871-2.033-10.497 6.055-1.526L47.82 60 4 32.374l21.483-5.411 3.837 5.674Z" fill="#fff"/><path d="M76.912 36.616c0-.347-.032-.664-.095-.949a1.79 1.79 0 0 0-.405-.788c-.198-.24-.49-.48-.878-.721-.378-.24-.873-.49-1.485-.748a35.415 35.415 0 0 1-2.12-.962 9.974 9.974 0 0 1-1.85-1.203 5.235 5.235 0 0 1-1.31-1.603c-.314-.623-.472-1.354-.472-2.191 0-.82.149-1.563.446-2.231a4.868 4.868 0 0 1 1.296-1.71 5.933 5.933 0 0 1 1.958-1.11c.756-.258 1.597-.387 2.525-.387 1.26 0 2.349.259 3.267.775a5.442 5.442 0 0 1 2.147 2.125c.513.9.77 1.932.77 3.099h-3.943c0-.552-.081-1.038-.243-1.456a2.018 2.018 0 0 0-.743-1.002c-.342-.24-.783-.36-1.323-.36-.504 0-.922.102-1.256.306a1.839 1.839 0 0 0-.729.815c-.153.339-.23.722-.23 1.15 0 .32.077.61.23.868.162.25.383.476.662.681.279.196.608.387.986.575.387.187.81.37 1.269.547.89.348 1.679.73 2.363 1.15.684.409 1.255.872 1.715 1.389a5.21 5.21 0 0 1 1.04 1.723c.233.641.35 1.372.35 2.191 0 .81-.144 1.55-.432 2.218-.279.659-.688 1.23-1.229 1.71-.54.472-1.192.837-1.957 1.096-.757.258-1.603.387-2.539.387-.909 0-1.769-.125-2.579-.374a6.323 6.323 0 0 1-2.147-1.162c-.612-.526-1.093-1.19-1.444-1.991-.352-.81-.527-1.768-.527-2.873h3.956c0 .588.059 1.092.176 1.51.117.41.297.74.54.989.243.24.54.423.891.548.36.115.77.173 1.229.173.522 0 .936-.098 1.242-.294.315-.196.54-.458.675-.788s.203-.703.203-1.122ZM87.632 22.28v19.453h-3.929V22.28h3.93ZM104.362 31.512v8.016c-.279.294-.689.637-1.229 1.03-.531.382-1.229.72-2.093 1.014-.855.285-1.9.428-3.132.428-1.09 0-2.08-.17-2.97-.508a6.03 6.03 0 0 1-2.283-1.536c-.63-.695-1.111-1.559-1.445-2.592-.332-1.042-.5-2.276-.5-3.7V30.35c0-1.407.159-2.632.474-3.674.324-1.051.792-1.924 1.404-2.619a5.702 5.702 0 0 1 2.187-1.55c.855-.338 1.819-.507 2.89-.507 1.476 0 2.687.245 3.632.735a4.843 4.843 0 0 1 2.16 2.178c.495.961.792 2.142.891 3.54h-3.821c-.063-.82-.202-1.46-.418-1.924-.207-.463-.5-.793-.878-.989-.378-.204-.869-.307-1.472-.307-.522 0-.977.094-1.364.28-.387.179-.71.473-.972.882-.26.41-.454.936-.58 1.577-.126.641-.19 1.425-.19 2.351v3.34c0 .918.073 1.702.217 2.352.144.65.355 1.18.634 1.59.288.41.648.708 1.08.895.441.178.96.267 1.553.267.477 0 .86-.05 1.148-.147.288-.098.517-.2.689-.307.18-.116.328-.205.445-.268v-3.58h-2.822v-2.953h6.765ZM108.615 22.28h3.47l4.01 13.307 3.997-13.306h3.065l-5.59 19.452h-2.957l-5.995-19.452Zm-1.404 0h3.308l.513 12.826v6.627h-3.821V22.28Zm14.434 0h3.321v19.453h-3.807v-6.627l.486-12.825ZM135.552 25.754l-4.226 15.979h-4.172l6.143-19.452h2.606l-.351 3.473Zm3.335 15.979-4.253-15.979-.392-3.473h2.647l6.198 19.452h-4.2Zm.149-7.255v3.247h-8.871v-3.247h8.871ZM150.027 37.578l3.726-15.297h4.267l-5.698 19.452h-2.876l.581-4.155ZM146.84 22.28l3.713 15.297.608 4.155h-2.89l-5.657-19.452h4.226ZM171.171 38.5v3.233h-8.547V38.5h8.547Zm-7.318-16.22v19.453h-3.956V22.28h3.956Zm6.171 7.883v3.14h-7.4v-3.14h7.4Zm1.12-7.882v3.246h-8.52v-3.246h8.52ZM173.494 22.28h6.305c1.315 0 2.435.223 3.362.669a4.754 4.754 0 0 1 2.134 1.977c.495.873.742 1.95.742 3.233 0 1.051-.144 1.95-.432 2.699a4.988 4.988 0 0 1-1.228 1.857 6.108 6.108 0 0 1-1.904 1.175l-1.202.709h-5.117l-.014-3.247h3.551c.54 0 .986-.116 1.337-.347.36-.24.626-.575.797-1.002.18-.437.27-.944.27-1.523 0-.615-.081-1.14-.243-1.577-.153-.445-.401-.784-.743-1.015-.333-.24-.77-.36-1.31-.36h-2.349v16.205h-3.956V22.28Zm8.925 19.453-3.605-8.67 4.145-.014 3.686 8.497v.187h-4.226ZM197.109 36.616c0-.347-.031-.664-.094-.949a1.79 1.79 0 0 0-.405-.788c-.198-.24-.491-.48-.878-.721-.378-.24-.873-.49-1.485-.748a35.421 35.421 0 0 1-2.12-.962 9.976 9.976 0 0 1-1.85-1.203 5.25 5.25 0 0 1-1.31-1.603c-.315-.623-.472-1.354-.472-2.191 0-.82.148-1.563.445-2.231a4.882 4.882 0 0 1 1.297-1.71 5.924 5.924 0 0 1 1.958-1.11c.756-.258 1.597-.387 2.524-.387 1.261 0 2.35.259 3.268.775a5.443 5.443 0 0 1 2.147 2.125c.513.9.77 1.932.77 3.099h-3.943c0-.552-.081-1.038-.243-1.456a2.02 2.02 0 0 0-.743-1.002c-.342-.24-.783-.36-1.323-.36-.504 0-.923.102-1.256.306a1.84 1.84 0 0 0-.729.815 2.76 2.76 0 0 0-.229 1.15c0 .32.076.61.229.868.162.25.383.476.662.681.279.196.607.387.985.575.387.187.811.37 1.27.547.891.348 1.678.73 2.363 1.15.684.409 1.255.872 1.714 1.389a5.21 5.21 0 0 1 1.04 1.723c.234.641.351 1.372.351 2.191 0 .81-.144 1.55-.432 2.218a4.738 4.738 0 0 1-1.229 1.71c-.54.472-1.192.837-1.958 1.096-.756.258-1.602.387-2.538.387a8.719 8.719 0 0 1-2.579-.374 6.324 6.324 0 0 1-2.147-1.162c-.612-.526-1.093-1.19-1.445-1.991-.351-.81-.526-1.768-.526-2.873h3.956c0 .588.059 1.092.176 1.51.117.41.297.74.54.989.243.24.54.423.891.548.36.115.769.173 1.229.173.522 0 .936-.098 1.242-.294.315-.196.54-.458.675-.788s.202-.703.202-1.122ZM215 38.5v3.233h-8.547V38.5H215Zm-7.318-16.22v19.453h-3.956V22.28h3.956Zm6.17 7.883v3.14h-7.399v-3.14h7.399Zm1.121-7.882v3.246h-8.52v-3.246h8.52Z" fill="#fff"/></svg>
