<svg width="264" height="553" viewBox="0 0 264 553" fill="none" xmlns="http://www.w3.org/2000/svg">
<g filter="url(#filter0_f_457_7615)">
<ellipse cx="142.761" cy="426.499" rx="45.5836" ry="108.5" fill="white"/>
</g>
<g filter="url(#filter1_f_457_7615)">
<ellipse cx="142.761" cy="400.999" rx="20.5377" ry="83" fill="#7FACFE"/>
</g>
<path fill-rule="evenodd" clip-rule="evenodd" d="M187.144 366.305C143.864 371.895 104.091 366.006 99.3826 365.407C99.1823 365.407 98.9819 365.207 98.9819 364.808C98.8817 363.71 99.3826 360.816 101.186 358.52C103.39 355.526 104.893 344.946 104.592 344.547C104.592 344.547 100.585 338.658 102.088 338.658C113.709 338.558 171.916 341.253 183.337 342.351C184.639 342.451 182.936 345.046 182.936 345.046C182.936 344.946 182.736 352.033 183.737 354.129C184.439 355.825 187.043 361.315 188.145 364.409C188.746 366.206 188.847 366.006 187.144 366.305Z" fill="#291E7D"/>
<path fill-rule="evenodd" clip-rule="evenodd" d="M68.7261 244.237C68.9264 246.633 71.7316 247.531 72.7334 249.328C74.2362 253.22 74.9374 257.412 75.9393 261.405C80.6479 280.768 85.2563 298.734 91.4677 317.498C93.0707 322.489 93.9723 327.679 92.5698 329.375C92.3694 328.976 91.9687 328.178 91.7683 327.779C91.1672 326.78 90.5661 325.383 89.1635 325.483C58.4071 341.552 31.5579 370.398 23.9439 404.732C23.443 406.429 22.2408 411.32 20.1369 411.32C14.1259 411.12 7.91452 411.919 2.10386 410.721C-0.300545 409.224 0.200367 408.226 0 405.531C0.300551 339.656 28.0514 298.933 68.5257 249.727C68.6259 248.33 68.6259 245.734 68.7261 244.237Z" fill="#3F2FB0"/>
<path fill-rule="evenodd" clip-rule="evenodd" d="M260.979 421.999C260.979 421.999 252.363 421.6 247.655 421.4C243.046 421.201 242.445 417.907 242.445 417.907C235.031 361.813 190.85 328.277 183.036 325.582C181.333 324.983 182.335 316.1 182.335 316.1C183.537 293.244 187.945 270.886 193.756 249.028C193.756 249.028 198.264 242.44 205.778 246.333C205.678 246.233 260.378 305.121 263.984 417.707C264.085 417.707 263.784 421.899 260.979 421.999Z" fill="#3F2FB0"/>
<path fill-rule="evenodd" clip-rule="evenodd" d="M220.304 266.394C223.41 258.909 232.526 146.422 223.51 131.75C221.406 126.56 175.422 123.266 133.645 124.364C99.8832 125.263 68.9265 129.355 65.8208 134.944C61.0119 143.827 63.9173 228.866 69.3272 246.532C69.3272 246.532 72.7334 248.429 72.8336 249.327C74.8373 255.515 83.6535 299.332 91.1672 317.298C92.8704 321.39 92.5698 323.386 92.5698 324.284C92.1691 325.382 91.7683 327.478 91.7683 327.478L96.3768 336.761C96.3768 336.761 98.7812 338.457 104.993 339.755C117.315 342.649 180.03 342.649 186.843 341.152C190.249 340.653 193.956 338.457 197.863 335.463C193.455 328.476 183.537 325.282 183.537 325.282C182.435 324.484 182.535 322.887 182.535 322.887C182.435 321.889 182.034 319.394 182.435 315.8C184.639 297.435 191.451 257.511 194.156 248.828C194.156 248.828 201.77 240.643 208.082 248.628C210.987 252.221 213.892 257.811 219.202 266.494L220.304 266.394Z" fill="#B8ADFF"/>
<path fill-rule="evenodd" clip-rule="evenodd" d="M183.737 344.446L184.438 343.148C186.141 342.35 187.944 341.452 189.648 340.454C188.646 340.753 187.944 341.152 187.143 341.152C174.62 342.15 159.192 341.851 144.665 341.751C129.237 341.851 109.1 338.158 96.2764 336.86L101.286 338.956L101.987 340.254C103.69 342.25 125.831 346.941 144.565 346.841C163.299 347.041 182.034 346.442 183.737 344.446Z" fill="#170F4F"/>
<path fill-rule="evenodd" clip-rule="evenodd" d="M66.4214 129.056C66.4214 129.056 65.9205 124.465 66.221 120.272C70.2284 67.4728 112.105 20.4622 135.648 3.49443C135.648 3.49443 140.357 -0.0987453 142.361 0.00106497C143.763 0.00106497 146.268 0.99917 148.472 2.59614C166.305 14.2739 217.799 62.2827 222.407 119.075L222.508 125.063C176.423 111.988 76.5399 122.269 66.4214 129.056Z" fill="#3F2FB0"/>
<path fill-rule="evenodd" clip-rule="evenodd" d="M222.508 125.163C176.424 111.788 76.4402 122.069 66.4219 129.155L70.2289 132.349C83.7537 124.963 188.045 119.773 218.801 130.153C218.2 129.555 218.501 128.457 220.204 128.057C221.807 127.558 222.508 125.163 222.508 125.163Z" fill="#1C1071"/>
<path fill-rule="evenodd" clip-rule="evenodd" d="M131.303 48.9062C132.879 48.9062 134.456 49.253 135.934 50.0619C142.141 53.529 144.998 63.1213 145.885 70.5178C146.378 74.216 146.378 78.1454 145.984 81.9592C145.392 87.6221 143.422 93.4006 141.057 98.3701C137.51 105.767 130.909 114.781 123.026 114.781C121.253 114.781 119.479 114.319 117.804 113.394C113.469 111.083 110.71 105.998 109.134 100.913C107.262 94.7875 106.769 87.8533 107.557 81.3814C107.754 79.3011 108.148 77.2209 108.641 75.1406C110.316 68.4375 113.371 61.7345 117.607 56.765C121.253 52.4889 126.081 48.9062 131.303 48.9062Z" fill="#382B9D"/>
<path fill-rule="evenodd" clip-rule="evenodd" d="M131.341 48.9082C142.462 48.9082 147.471 65.2771 145.968 77.0547C144.465 88.9321 134.146 105.101 122.926 105.101C111.805 105.101 105.594 90.9283 107.497 76.6555C109.501 62.4824 120.221 48.9082 131.341 48.9082ZM129.338 51.9025C138.554 51.9025 142.562 65.5765 141.36 75.5575C140.157 85.5386 131.642 99.1128 122.425 99.1128C113.208 99.1128 108.199 87.1355 109.702 75.2581C111.304 63.3807 120.221 51.9025 129.338 51.9025Z" fill="#A195F0"/>
<path fill-rule="evenodd" clip-rule="evenodd" d="M129.338 51.6025C130.641 51.6025 131.843 51.902 133.045 52.401C138.455 54.7965 140.859 62.0826 141.561 67.4724C141.961 70.1673 141.961 72.9619 141.661 75.6568C141.16 79.6492 139.657 83.8413 137.653 87.3346C134.748 92.7244 129.138 99.5115 122.325 99.5115C120.823 99.5115 119.42 99.2121 118.118 98.6132C114.411 96.9164 112.006 93.2234 110.704 89.5305C109.101 85.039 108.7 79.9487 109.301 75.1578C109.502 73.7604 109.702 72.4629 110.103 71.1654C111.405 66.1748 114.01 61.1843 117.516 57.4913C120.722 54.2974 124.83 51.6025 129.338 51.6025Z" fill="#8B8897"/>
<path fill-rule="evenodd" clip-rule="evenodd" d="M129.337 51.9023C138.554 51.9023 142.562 65.5764 141.359 75.5574C140.157 85.5384 131.641 99.1126 122.425 99.1126C113.208 99.1126 108.198 87.1354 109.701 75.2579C111.304 63.3805 120.221 51.9023 129.337 51.9023Z" fill="#E5EDFE"/>
<path fill-rule="evenodd" clip-rule="evenodd" d="M68.7259 244.536C69.0265 246.832 71.7315 247.73 72.7333 249.427C74.236 253.319 74.9373 257.511 75.9391 261.504C80.6478 280.867 85.2562 298.833 91.4676 317.597C93.0706 322.588 93.9722 327.778 92.5697 329.475C92.3693 329.075 91.9686 328.277 91.7682 327.878C91.1671 326.88 90.566 325.482 89.1634 325.582C84.555 327.978 80.0467 330.672 75.6386 333.667C70.7296 299.432 63.0154 277.873 56.4033 264.798C60.3105 259.907 64.3178 254.916 68.4254 249.826C68.6257 248.529 68.6258 246.033 68.7259 244.536Z" fill="#291E7D"/>
<path fill-rule="evenodd" clip-rule="evenodd" d="M191.151 330.573C187.444 327.778 184.539 326.081 183.036 325.582C181.333 324.983 182.335 316.1 182.335 316.1C183.537 293.244 187.945 270.886 193.756 249.028C193.756 249.028 198.264 242.44 205.778 246.333C205.778 246.333 211.989 253.02 220.405 266.295C207.28 265.796 194.056 278.871 191.151 330.573Z" fill="#291E7D"/>
<path fill-rule="evenodd" clip-rule="evenodd" d="M68.9258 246.233C68.9258 246.433 69.026 246.533 69.026 246.732C69.026 246.732 69.1261 246.832 69.4267 246.932C69.3265 246.732 69.1261 246.533 68.9258 246.233ZM73.1335 251.823C75.9387 262.702 83.9534 301.029 90.866 317.598C92.5692 321.69 92.2686 323.686 92.2686 324.584C91.8679 325.682 91.4671 327.778 91.4671 327.778L96.0756 337.061C96.0756 337.061 98.48 338.758 104.691 340.055C117.014 342.95 179.729 342.95 186.542 341.452C189.948 340.953 193.655 338.758 197.562 335.763C193.154 328.777 183.235 325.583 183.235 325.583C182.133 324.784 182.234 323.187 182.234 323.187C182.133 322.189 181.733 319.694 182.133 316.101C183.937 301.528 188.545 273.482 191.651 258.111C136.249 304.722 97.0774 281.766 73.1335 251.823Z" fill="#ADA3EC"/>
<path fill-rule="evenodd" clip-rule="evenodd" d="M107.797 232.859C120.921 232.659 133.945 232.759 146.668 233.258C152.078 233.358 155.785 236.452 155.585 238.748L161.396 315.402C161.596 320.293 161.796 325.882 156.086 326.98C142.461 329.475 127.634 330.474 114.009 327.579C109.5 326.681 106.996 324.285 105.894 319.694C99.482 293.544 97.4783 266.795 97.7788 239.946C98.4801 234.955 102.287 233.059 107.797 232.859Z" fill="#3726BF"/>
<path fill-rule="evenodd" clip-rule="evenodd" d="M106.395 238.848C107.296 239.147 140.557 238.149 140.557 238.149C140.557 238.149 149.875 237.55 150.977 245.435L155.685 312.807C155.685 312.807 156.988 322.09 148.873 322.688C139.355 324.884 124.227 323.587 124.227 323.587C124.227 323.587 111.003 322.289 110.302 318.596C106.194 309.414 103.089 245.735 103.189 243.04C103.389 240.245 104.391 238.848 106.395 238.848Z" fill="#20147B"/>
<path fill-rule="evenodd" clip-rule="evenodd" d="M106.295 240.545C106.094 240.545 105.894 240.644 105.693 240.744C105.092 241.143 104.992 242.441 104.992 243.04C104.992 243.439 104.992 243.838 104.992 244.238C104.992 245.136 105.092 246.034 105.092 246.932C105.193 249.827 105.393 252.821 105.493 255.716C105.994 264.2 106.495 272.783 107.096 281.267C107.697 288.953 108.298 296.638 109.3 304.323C109.701 307.218 110.001 310.112 110.602 312.907C110.903 314.404 111.304 316.5 111.905 317.798L112.005 317.997V318.197C112.105 318.496 113.107 319.095 113.408 319.195C114.61 319.794 116.012 320.193 117.315 320.493C119.519 321.091 122.023 321.491 124.328 321.69C126.031 321.89 127.734 321.89 129.437 321.99C133.044 322.09 136.75 322.09 140.457 321.89C143.062 321.69 145.867 321.391 148.472 320.792H148.572H148.672C151.177 320.592 152.88 319.395 153.581 316.999C153.982 315.802 154.082 314.105 153.882 312.907V312.807L149.173 245.435C148.772 242.74 147.27 241.143 144.765 240.245C143.563 239.846 141.86 239.546 140.658 239.646H140.557C134.847 239.846 129.136 239.946 123.426 240.145C119.619 240.245 115.712 240.345 111.905 240.445C110.603 240.445 109.3 240.445 107.998 240.445C107.597 240.644 106.896 240.644 106.295 240.545Z" fill="#B3AAF2"/>
<path fill-rule="evenodd" clip-rule="evenodd" d="M138.855 279.771H140.859C141.36 279.771 141.861 280.17 141.961 280.769L142.462 287.855C142.462 288.354 142.061 288.853 141.56 288.853H139.557C139.056 288.853 138.555 288.454 138.455 287.855L137.954 280.769C137.854 280.27 138.254 279.771 138.855 279.771ZM138.855 280.469C138.755 280.469 138.655 280.569 138.655 280.669L139.156 287.755C139.156 287.955 139.356 288.055 139.557 288.055H141.56C141.661 288.055 141.761 287.955 141.761 287.855L141.26 280.769C141.26 280.569 141.06 280.469 140.859 280.469H138.855Z" fill="#4938C9"/>
<path fill-rule="evenodd" clip-rule="evenodd" d="M117.114 251.724H135.147C137.051 251.724 138.754 253.321 138.854 255.217L139.255 261.804C139.355 263.701 137.852 265.298 135.949 265.298H117.916C116.012 265.298 114.309 263.701 114.209 261.804L113.808 255.217C113.608 253.321 115.11 251.724 117.114 251.724Z" fill="#4938C9"/>
<path fill-rule="evenodd" clip-rule="evenodd" d="M117.215 252.522C115.712 252.522 114.51 253.72 114.61 255.317L115.011 261.905C115.111 263.502 116.514 264.699 118.017 264.699H135.849C137.352 264.699 138.554 263.502 138.454 261.905L138.053 255.317C137.953 253.72 136.551 252.522 135.048 252.522H117.215Z" fill="white"/>
<path fill-rule="evenodd" clip-rule="evenodd" d="M138.755 207.107C145.968 204.512 141.961 161.494 141.961 161.494L113.909 164.389C113.909 164.389 110.904 206.608 119.019 207.107C118.919 208.205 134.647 208.605 138.755 207.107Z" fill="#ADA3EC"/>
<path fill-rule="evenodd" clip-rule="evenodd" d="M142.961 198.623L142.861 189.64L126.531 189.94L136.449 176.565L124.828 165.686C128.936 166.285 142.06 165.386 142.06 165.386V157.302C133.143 158.2 114.71 157.601 114.71 157.601L114.609 166.185L124.327 177.463L114.81 190.339V198.623C114.81 198.623 122.724 200.42 142.961 198.623Z" fill="#110857"/>
<path fill-rule="evenodd" clip-rule="evenodd" d="M142.26 197.625L142.16 188.642L125.83 188.942L135.748 175.567L124.127 164.688C128.234 165.287 141.359 164.388 141.359 164.388V156.304C132.442 157.202 114.008 156.603 114.008 156.603L113.908 165.187L123.626 176.465L114.109 189.341V197.625C114.109 197.625 122.023 199.322 142.26 197.625Z" fill="#4131BC"/>
<defs>
<filter id="filter0_f_457_7615" x="79.1777" y="299.999" width="127.167" height="253" filterUnits="userSpaceOnUse" color-interpolation-filters="sRGB">
<feFlood flood-opacity="0" result="BackgroundImageFix"/>
<feBlend mode="normal" in="SourceGraphic" in2="BackgroundImageFix" result="shape"/>
<feGaussianBlur stdDeviation="9" result="effect1_foregroundBlur_457_7615"/>
</filter>
<filter id="filter1_f_457_7615" x="96.2236" y="291.999" width="93.0752" height="218" filterUnits="userSpaceOnUse" color-interpolation-filters="sRGB">
<feFlood flood-opacity="0" result="BackgroundImageFix"/>
<feBlend mode="normal" in="SourceGraphic" in2="BackgroundImageFix" result="shape"/>
<feGaussianBlur stdDeviation="13" result="effect1_foregroundBlur_457_7615"/>
</filter>
</defs>
</svg>
