<svg width="2280" height="500" viewBox="0 0 2280 500" fill="none" xmlns="http://www.w3.org/2000/svg">
<path d="M583.706 87.2622C608.088 69.853 636.788 59.5256 666.64 57.419L1402.18 0.402274C1430.15 -1.57144 1458.14 3.74111 1483.44 15.8234L2280 499.696L3.02036 499.697L583.706 87.2622Z" fill="#111111" fill-opacity="0.04"/>
<path d="M571.641 95.7764C578.379 90.2054 585.485 85.035 593.374 81.269C613.14 71.8342 634.644 66.5374 656.585 65.7551L1388.18 32.6903C1412.77 31.8135 1437.24 36.6317 1459.7 46.7759L2179.23 498.474H84.6415L571.641 95.7764Z" fill="#111111" fill-opacity="0.06"/>
<path d="M555.983 96.0119C562.995 91.4128 570.301 87.2321 578.159 84.3454C598.303 76.9452 620.047 73.1192 642.068 73.1476L1370.09 74.0864C1389.92 74.112 1409.54 77.2645 1427.97 83.3496C1436.79 86.2631 1444.97 90.7753 1452.79 95.8064L2080.43 500L0 500L555.983 96.0119Z" fill="#111111"/>
</svg>
