<svg width="72" height="72" viewBox="0 0 72 72" fill="none" xmlns="http://www.w3.org/2000/svg">
<path fill-rule="evenodd" clip-rule="evenodd" d="M50.9892 57H51C59.2843 57 66 50.2843 66 42C66 34.7418 60.8449 28.6877 53.9963 27.2993C53.9988 27.1998 54 27.1001 54 27C54 20.3726 48.6274 15 42 15C36.9711 15 32.6648 18.0934 30.8799 22.4811C29.3065 21.5405 27.4664 21 25.5 21C19.9501 21 15.4059 25.3058 15.0257 30.7591C9.76893 32.6051 6 37.6124 6 43.5C6 50.9558 12.0442 57 19.5 57L19.5103 57H30.7752L30.784 47.2868H24.2862C23.0006 47.2868 22.3107 45.7753 23.1529 44.8041L34.8578 31.306C35.4557 30.6166 36.5254 30.6163 37.1237 31.3053L48.8437 44.8033C49.6869 45.7744 48.9971 47.2868 47.7111 47.2868H41.2076V57H50.9892Z" fill="url(#paint0_linear_346_4269)"/>
<defs>
<linearGradient id="paint0_linear_346_4269" x1="36" y1="15" x2="36" y2="57" gradientUnits="userSpaceOnUse">
<stop stop-color="#874EFE"/>
<stop offset="1" stop-color="#C366FD"/>
</linearGradient>
</defs>
</svg>
