<svg width="36" height="36" viewBox="0 0 36 36" fill="none" xmlns="http://www.w3.org/2000/svg">
<path fill-rule="evenodd" clip-rule="evenodd" d="M4 17.999C4 10.2769 10.2779 3.99902 18 3.99902C25.7221 3.99902 32 10.2769 32 17.999C32 25.7211 25.7221 31.999 18 31.999C10.2779 31.999 4 25.7211 4 17.999ZM14.979 13.9283L22.8828 10.2093L22.8828 10.2092C23.7319 9.81783 24.7117 9.98078 25.3649 10.6332C26.0183 11.2857 26.1814 12.2644 25.7896 13.1125L22.0663 21.0074C21.8701 21.4644 21.4782 21.823 21.021 22.0515L13.1172 25.7705C12.8233 25.9337 12.4968 25.999 12.1701 25.999C11.615 25.999 11.0598 25.7708 10.6351 25.3466C9.98171 24.6941 9.81859 23.7154 10.2104 22.8673L13.9337 14.9724C14.1299 14.5154 14.5218 14.1568 14.979 13.9283ZM16.1874 16.1141L19.9107 19.8332L23.2094 12.8192L16.1874 16.1141Z" fill="url(#paint0_linear_454_4194)"/>
<defs>
<linearGradient id="paint0_linear_454_4194" x1="4" y1="15.2993" x2="27.8125" y2="15.2993" gradientUnits="userSpaceOnUse">
<stop stop-color="#D46AFB"/>
<stop offset="1" stop-color="#8F59FF"/>
</linearGradient>
</defs>
</svg>
