<?xml version="1.0" encoding="UTF-8"?>
<!DOCTYPE svg PUBLIC "-//W3C//DTD SVG 1.1//EN" "http://www.w3.org/Graphics/SVG/1.1/DTD/svg11.dtd">
<!-- Creator: CorelDRAW 2019 (64-Bit) -->
<svg xmlns="http://www.w3.org/2000/svg" xml:space="preserve" width="94.772mm" height="91.44mm" version="1.1" style="shape-rendering:geometricPrecision; text-rendering:geometricPrecision; image-rendering:optimizeQuality; fill-rule:evenodd; clip-rule:evenodd"
viewBox="0 0 9477.2 9144"
 xmlns:xlink="http://www.w3.org/1999/xlink">
 <defs>
  <style type="text/css">
   <![CDATA[
    .fil1 {fill:#52619C}
    .fil0 {fill:#9C9DCD}
   ]]>
  </style>
 </defs>
 <g id="Layer_x0020_1">
  <metadata id="CorelCorpID_0Corel-Layer"/>
  <g id="_2514168491264">
   <path class="fil0" d="M4160.6 1329.72c-233.9,80.09 -152.11,298.91 83.42,233.49 259.14,-71.97 736.7,-186.42 768.16,-194.22 1139.55,-282.73 3894.46,-959.29 4407.27,561.33 69.74,206.77 79.59,418.04 11.47,626.61 -259.87,795.66 -1544.35,1216.69 -2273.33,1420.76l-1.81 0.51 -2870.81 697.82 -649.3 -926.55 3246.51 -788.97c426.66,-119.79 904.12,-270.47 1281.89,-504.3 462.92,-286.55 107.6,-457.31 -234.34,-500.43 -865.11,-109.09 -1860.37,145.11 -2698.69,353.1 -511.3,126.86 -1244.46,274.54 -1738.81,39.69 -507.31,-241 -760.51,-979.22 -447.38,-1461.68 280.68,-432.47 923.09,-601.66 1397.57,-709.2l677.33 -177.68 644.89 920.28c-543.26,157.99 -1063.29,260.41 -1604.04,409.44z"/>
   <polygon class="fil1" points="4284.97,4676.02 2722.7,5055.77 5909.5,6994.25 5565.3,5280.11 6590.08,5031 7415.98,9144 0.01,4633.02 3635.67,3749.47 "/>
  </g>
 </g>
</svg>
